<svg id="Layer_1" data-name="Layer 1" xmlns="http://www.w3.org/2000/svg" xmlns:xlink="http://www.w3.org/1999/xlink" viewBox="0 0 2560 1680"><defs><linearGradient id="linear-gradient" x1="1280" x2="1280" y2="251" gradientUnits="userSpaceOnUse"><stop offset="0" stop-color="#222"/><stop offset="1" stop-color="#222" stop-opacity="0"/></linearGradient><linearGradient id="linear-gradient-2" y1="743" y2="1015" gradientTransform="translate(0 665)" xlink:href="#linear-gradient"/></defs><title>x</title><rect width="2560" height="1680" style="fill:#222"/><g style="opacity:0.100000001490116"><polygon points="2520.39 0 2520.39 1 1679.84 841.55 1280 841.55 2121.55 0 2520.39 0" style="fill:#fff;opacity:0.200000002980232"/><polygon points="2121.55 0 1280 841.55 1280 441.71 1721.71 0 2121.55 0" style="fill:#fff"/><polygon points="2118.46 1680 1718.62 1680 1280 1241.39 1280 841.55 2118.46 1680" style="fill:#fff;opacity:0.100000001490116"/><polygon points="2518.3 1680 2118.46 1680 1280 841.55 1679.84 841.55 2518.3 1680" style="fill:#fff;opacity:0.400000005960465"/><polygon points="1280 841.55 441.54 1680 41.7 1680 880.16 841.55 1280 841.55" style="fill:#fff"/><polygon points="1280 841.55 1280 1241.39 841.38 1680 441.54 1680 1280 841.55" style="fill:#fff;opacity:0.200000002980232"/><polygon points="1280 441.71 1280 841.55 438.45 0 838.29 0 1280 441.71" style="fill:#fff;opacity:0.5"/><polygon points="1280 841.55 880.16 841.55 39.61 1 39.61 0 438.45 0 1280 841.55" style="fill:#fff;opacity:0.200000002980232"/></g><rect width="2560" height="251" style="fill:url(#linear-gradient)"/><rect y="1408" width="2560" height="272" transform="translate(2560 3088) rotate(180)" style="fill:url(#linear-gradient-2)"/></svg>